PathFileType	4	(X/Y/Z)	s02c0001.trc
DataRate	CameraRate	NumFrames	NumMarkers	Units	OrigDataRate	OrigDataStartFrame	OrigNumFrames
200	200	4	49	mm	200	250	2000
Frame#	Time	racr			lacr			c7			jug			rlel			rdr			llel			ldr			s2			lic			ric			lasi			rasi			rpsi			lpsi			rgt			lgt			rth1			rth2			rth3			rth4			rlfc			rmfc			rsh1			rsh2			rsh3			rsh4			rlmal			rmmal			rcal			rtoe			rmt5			rmt1			lth1			lth2			lth4			lth3			llfc			lmfc			lsh1			lsh2			lsh3			lsh4			llmal			lmmal			lcal			ltoe			lmt1			lmt5			
		X1	Y1	Z1	X2	Y2	Z2	X3	Y3	Z3	X4	Y4	Z4	X5	Y5	Z5	X6	Y6	Z6	X7	Y7	Z7	X8	Y8	Z8	X9	Y9	Z9	X10	Y10	Z10	X11	Y11	Z11	X12	Y12	Z12	X13	Y13	Z13	X14	Y14	Z14	X15	Y15	Z15	X16	Y16	Z16	X17	Y17	Z17	X18	Y18	Z18	X19	Y19	Z19	X20	Y20	Z20	X21	Y21	Z21	X22	Y22	Z22	X23	Y23	Z23	X24	Y24	Z24	X25	Y25	Z25	X26	Y26	Z26	X27	Y27	Z27	X28	Y28	Z28	X29	Y29	Z29	X30	Y30	Z30	X31	Y31	Z31	X32	Y32	Z32	X33	Y33	Z33	X34	Y34	Z34	X35	Y35	Z35	X36	Y36	Z36	X37	Y37	Z37	X38	Y38	Z38	X39	Y39	Z39	X40	Y40	Z40	X41	Y41	Z41	X42	Y42	Z42	X43	Y43	Z43	X44	Y44	Z44	X45	Y45	Z45	X46	Y46	Z46	X47	Y47	Z47	X48	Y48	Z48	X49	Y49	Z49	
250	1.2500	566.012939	1429.851929	566.622803	592.509583	1422.378296	163.454971	545.941406	1479.782471	359.265961	647.816101	1381.422852	367.170593	533.314941	1144.161865	636.129272	625.956116	1017.807068	779.908813	565.024048	1113.808105	130.409637	738.122742	1038.550537	23.850565	476.492950	973.814331	364.978424	634.459106	1018.083618	230.076324	601.278809	1020.426575	515.392822	681.255676	968.744263	262.192169	650.496765	971.632263	496.046387	485.989136	1000.095276	409.540070	497.961884	996.096619	325.158569	551.615173	886.503357	539.931152	568.174011	886.313416	206.378769	586.726807	802.133667	552.944885	604.842224	714.438354	550.102539	578.614807	633.061707	559.635437	638.149231	712.420654	532.111267	558.651794	499.217224	516.136597	562.476257	484.522339	412.027527	529.532410	398.168549	533.722778	543.697937	311.215790	517.964905	514.279175	230.011154	514.119751	564.059448	313.524445	484.277618	503.102570	101.130363	499.662354	514.942566	114.625641	421.759369	451.143463	53.607857	442.846619	726.882141	86.705269	498.871368	615.379883	48.226173	537.595520	657.185181	71.591713	436.110535	596.951050	760.068420	188.909241	606.957153	673.144409	195.200531	640.945801	670.462280	211.108902	570.338806	592.742371	204.038956	563.053528	495.021973	224.636444	559.459961	468.854950	322.560059	537.239441	399.236908	200.199768	555.335388	315.661530	215.495895	529.230957	228.759094	214.540878	575.135559	317.882812	250.747269	518.858215	114.102882	231.605438	541.694275	118.548218	309.790100	468.776550	58.285713	277.531311	751.351074	82.046448	249.412506	674.115845	70.499252	302.646057	646.700867	46.417057	196.245682	
251	1.2550	566.048096	1429.849365	566.623352	592.572693	1422.414307	163.444550	545.963928	1479.788574	359.280487	647.865417	1381.415283	367.192535	533.361084	1144.166748	636.111511	625.958923	1017.803955	779.919373	565.055115	1113.802002	130.411224	738.155701	1038.547241	23.855257	476.503906	973.812073	364.988434	634.481018	1018.079407	230.059311	601.304016	1020.435425	515.378235	681.286011	968.736206	262.189636	650.506714	971.626953	496.035767	486.011230	1000.108154	409.560120	497.989471	996.093262	325.172150	551.636169	886.503967	539.921448	568.195007	886.319580	206.367371	586.733276	802.136841	552.942871	604.863770	714.433167	550.111267	578.643494	633.070496	559.638062	638.162415	712.422424	532.116760	558.649353	499.223602	516.150879	562.502625	484.525360	412.023041	529.549866	398.169312	533.716858	543.713135	311.212769	517.959473	514.274170	230.017303	514.121338	564.060669	313.518372	484.272736	503.097046	101.136772	499.655701	516.076721	114.162651	421.533417	451.136444	53.615192	442.850189	726.866272	86.693947	498.896851	615.367188	48.225807	537.605835	657.152771	71.600143	436.126678	596.959351	760.052002	188.904480	606.978455	673.148499	195.189926	640.961365	670.446960	211.097672	570.358337	592.745178	204.035187	563.087463	495.033630	224.637558	559.466614	468.852478	322.550781	537.223633	399.234985	200.208298	555.355042	315.664520	215.493073	529.202942	228.743210	214.525024	575.116943	317.879944	250.731140	518.866699	114.121925	231.594681	541.666138	118.561256	309.798431	468.765411	58.284863	277.531281	751.335632	82.027557	249.402618	674.137939	70.493492	302.644867	646.719727	46.435650	196.244446	
252	1.2600	566.070129	1429.842407	566.621704	592.608643	1422.407227	163.441528	546.019897	1479.778687	359.266785	647.899658	1381.414307	367.173767	533.354919	1144.163452	636.097961	625.953430	1017.803589	779.901672	565.095459	1113.798828	130.402573	738.185913	1038.537964	23.864628	476.531860	973.809448	364.998169	634.511719	1018.066711	230.071152	601.326416	1020.436157	515.388306	681.305786	968.739929	262.181244	650.531250	971.628357	496.047638	486.035156	1000.099670	409.555359	498.010712	996.093811	325.163757	551.643555	886.512878	539.925720	568.228943	886.309937	206.388443	586.756348	802.125977	552.936829	604.872253	714.443481	550.101929	578.665588	633.050903	559.633789	638.175903	712.428467	532.114624	558.678528	499.219421	516.139099	562.513062	484.521820	412.020996	529.547119	398.174133	533.722961	543.695679	311.219391	517.944275	514.292542	230.040100	514.127686	564.072266	313.521515	484.270569	503.095459	101.151154	499.652649	516.079712	114.153397	421.539062	451.156830	53.602367	442.846771	726.881714	86.717690	498.880310	615.372498	48.223061	537.597900	657.167786	71.615364	436.106628	596.977112	760.057251	188.907898	606.978455	673.148560	195.189941	640.964294	670.444641	211.104309	570.376709	592.735291	204.036819	563.086609	495.033630	224.643173	559.466370	468.843445	322.550751	537.237488	399.242096	200.196960	555.356506	315.678833	215.500092	529.224243	228.754639	214.527084	575.117981	317.879822	250.745697	518.854858	114.117035	231.614548	541.674255	118.548569	309.800323	468.764374	58.296421	277.543182	751.339294	82.050148	249.404510	674.122192	70.491646	302.634949	646.708923	46.415604	196.235855	
253	1.2650	566.137329	1429.841919	566.646973	592.648987	1422.404907	163.443024	546.054626	1479.789917	359.263733	647.931091	1381.413208	367.199890	533.398499	1144.161865	636.077393	625.966431	1017.800049	779.886719	565.135864	1113.799805	130.387604	738.219849	1038.531738	23.864571	476.546356	973.817749	364.999908	634.516541	1018.062439	230.070953	601.352051	1020.444824	515.373535	681.321167	968.727356	262.195251	650.550903	971.629456	496.037231	486.055359	1000.102844	409.544739	498.029053	996.110962	325.147644	551.664368	886.499817	539.909363	568.235413	886.306580	206.381668	586.778931	802.126038	552.930176	604.890808	714.446716	550.096008	578.686279	633.056152	559.637268	638.201477	712.411316	532.121338	558.686401	499.215271	516.140015	562.507385	484.495239	412.019714	529.548645	398.175079	533.717346	543.725159	311.225647	517.964233	514.298035	230.005234	514.115112	564.061523	313.517212	484.289764	503.089661	101.139603	499.655640	514.947754	114.609077	421.745850	451.135406	53.619965	442.851685	726.883057	86.695847	498.890869	615.378601	48.217121	537.588623	657.174927	71.583267	436.118652	597.012878	760.063110	188.917908	606.984192	673.141602	195.187988	640.974548	670.449768	211.102142	570.374512	592.745483	204.042694	563.089539	495.036469	224.634232	559.470703	468.860565	322.554230	537.240295	399.247772	200.204559	555.350464	315.670837	215.492706	529.229797	228.748505	214.529877	575.123291	317.863037	250.745010	518.858337	114.116119	231.606079	541.675903	118.574646	309.794281	468.767914	58.283531	277.532349	751.341736	82.038925	249.414917	674.127319	70.483017	302.652252	646.707336	46.413548	196.235657	
